<svg width="87" height="20" viewBox="0 0 87 20" fill="none" xmlns="http://www.w3.org/2000/svg">
<path d="M6.11101 14.973C5.84501 14.973 5.62101 14.882 5.43901 14.7C5.25701 14.518 5.16601 14.294 5.16601 14.028V1.995H0.882005C0.630005 1.995 0.420005 1.911 0.252005 1.743C0.084005 1.575 5.01052e-06 1.365 5.01052e-06 1.113C5.01052e-06 0.860999 0.084005 0.650999 0.252005 0.482999C0.420005 0.300999 0.630005 0.21 0.882005 0.21H11.34C11.592 0.21 11.802 0.300999 11.97 0.482999C12.152 0.650999 12.243 0.860999 12.243 1.113C12.243 1.365 12.152 1.575 11.97 1.743C11.802 1.911 11.592 1.995 11.34 1.995H7.07701V14.028C7.07701 14.294 6.97901 14.518 6.78301 14.7C6.60101 14.882 6.37701 14.973 6.11101 14.973ZM17.5544 15.078C16.4764 15.078 15.5314 14.847 14.7194 14.385C13.9074 13.923 13.2774 13.272 12.8294 12.432C12.3954 11.578 12.1784 10.605 12.1784 9.513C12.1784 8.421 12.3954 7.455 12.8294 6.615C13.2774 5.761 13.9074 5.103 14.7194 4.641C15.5314 4.179 16.4764 3.948 17.5544 3.948C18.6184 3.948 19.5564 4.179 20.3684 4.641C21.1804 5.103 21.8104 5.761 22.2584 6.615C22.7064 7.455 22.9304 8.421 22.9304 9.513C22.9304 10.605 22.7064 11.578 22.2584 12.432C21.8104 13.272 21.1804 13.923 20.3684 14.385C19.5564 14.847 18.6184 15.078 17.5544 15.078ZM17.5544 13.335C18.1284 13.335 18.6744 13.202 19.1924 12.936C19.7244 12.67 20.1584 12.25 20.4944 11.676C20.8444 11.102 21.0194 10.374 21.0194 9.492C21.0194 8.624 20.8444 7.903 20.4944 7.329C20.1584 6.755 19.7244 6.342 19.1924 6.09C18.6744 5.824 18.1284 5.691 17.5544 5.691C16.9664 5.691 16.4064 5.824 15.8744 6.09C15.3564 6.342 14.9294 6.755 14.5934 7.329C14.2574 7.903 14.0894 8.624 14.0894 9.492C14.0894 10.374 14.2574 11.102 14.5934 11.676C14.9294 12.25 15.3564 12.67 15.8744 12.936C16.4064 13.202 16.9664 13.335 17.5544 13.335ZM27.8562 19.803C27.6042 19.803 27.3872 19.712 27.2052 19.53C27.0372 19.348 26.9532 19.131 26.9532 18.879C26.9532 18.767 26.9742 18.655 27.0162 18.543L28.3812 15.036L24.4332 5.418C24.3772 5.278 24.3492 5.145 24.3492 5.019C24.3492 4.753 24.4402 4.529 24.6222 4.347C24.8042 4.151 25.0282 4.053 25.2942 4.053C25.4902 4.053 25.6652 4.109 25.8192 4.221C25.9872 4.333 26.1062 4.473 26.1762 4.641L29.4102 12.663L32.7072 4.683C32.8892 4.263 33.1832 4.053 33.5892 4.053C33.8552 4.053 34.0792 4.151 34.2612 4.347C34.4432 4.529 34.5342 4.753 34.5342 5.019C34.5342 5.145 34.5132 5.264 34.4712 5.376L28.7382 19.152C28.5422 19.586 28.2482 19.803 27.8562 19.803ZM41.7395 15.078C39.9615 15.078 38.2955 14.742 36.7415 14.07C36.5735 14 36.4335 13.888 36.3215 13.734C36.2095 13.566 36.1535 13.391 36.1535 13.209C36.1535 12.971 36.2305 12.768 36.3845 12.6C36.5525 12.418 36.7625 12.327 37.0145 12.327C37.1545 12.327 37.2875 12.355 37.4135 12.411C38.7015 12.985 40.0805 13.272 41.5505 13.272C44.0005 13.272 45.2255 12.467 45.2255 10.857C45.2255 10.437 45.0645 10.087 44.7425 9.807C44.4345 9.527 44.0495 9.31 43.5875 9.156C43.1255 8.988 42.4675 8.792 41.6135 8.568C40.4795 8.274 39.5625 7.994 38.8625 7.728C38.1625 7.448 37.5605 7.035 37.0565 6.489C36.5525 5.943 36.3005 5.215 36.3005 4.305C36.3005 3.507 36.5105 2.786 36.9305 2.142C37.3505 1.484 37.9665 0.965999 38.7785 0.588C39.6045 0.196 40.5915 -5.96046e-08 41.7395 -5.96046e-08C43.2795 -5.96046e-08 44.6725 0.231 45.9185 0.693C46.3105 0.833 46.5065 1.113 46.5065 1.533C46.5065 1.757 46.4295 1.96 46.2755 2.142C46.1215 2.324 45.9185 2.415 45.6665 2.415C45.5825 2.415 45.4705 2.387 45.3305 2.331C44.2385 1.953 43.1115 1.764 41.9495 1.764C40.8435 1.764 39.9405 1.974 39.2405 2.394C38.5545 2.814 38.2115 3.402 38.2115 4.158C38.2115 4.662 38.3725 5.075 38.6945 5.397C39.0305 5.705 39.4435 5.95 39.9335 6.132C40.4375 6.3 41.1165 6.482 41.9705 6.678C43.0765 6.944 43.9655 7.21 44.6375 7.476C45.3235 7.742 45.9045 8.155 46.3805 8.715C46.8705 9.275 47.1155 10.031 47.1155 10.983C47.1155 11.767 46.8915 12.474 46.4435 13.104C45.9955 13.72 45.3655 14.203 44.5535 14.553C43.7415 14.903 42.8035 15.078 41.7395 15.078ZM52.9062 15.078C50.8622 15.078 49.8402 14.154 49.8402 12.306V5.796H48.3492C48.2372 5.796 48.1392 5.761 48.0552 5.691C47.9852 5.607 47.9502 5.509 47.9502 5.397C47.9502 5.257 48.0132 5.138 48.1392 5.04L50.9952 2.247C51.1212 2.121 51.2402 2.058 51.3522 2.058C51.4642 2.058 51.5552 2.1 51.6252 2.184C51.7092 2.268 51.7512 2.366 51.7512 2.478V4.158H54.1242C54.3622 4.158 54.5582 4.235 54.7122 4.389C54.8662 4.543 54.9432 4.739 54.9432 4.977C54.9432 5.201 54.8662 5.397 54.7122 5.565C54.5582 5.719 54.3622 5.796 54.1242 5.796H51.7512V12.138C51.7512 12.684 51.8772 13.034 52.1292 13.188C52.3952 13.328 52.7242 13.398 53.1162 13.398C53.3962 13.398 53.6762 13.356 53.9562 13.272C54.0122 13.258 54.0682 13.244 54.1242 13.23C54.1942 13.216 54.2782 13.209 54.3762 13.209C54.5722 13.209 54.7472 13.286 54.9012 13.44C55.0552 13.58 55.1322 13.755 55.1322 13.965C55.1322 14.287 54.9712 14.532 54.6492 14.7C54.1032 14.952 53.5222 15.078 52.9062 15.078ZM61.8102 15.078C60.7322 15.078 59.7872 14.847 58.9752 14.385C58.1632 13.923 57.5332 13.272 57.0852 12.432C56.6512 11.578 56.4342 10.605 56.4342 9.513C56.4342 8.421 56.6512 7.455 57.0852 6.615C57.5332 5.761 58.1632 5.103 58.9752 4.641C59.7872 4.179 60.7322 3.948 61.8102 3.948C62.8742 3.948 63.8122 4.179 64.6242 4.641C65.4362 5.103 66.0662 5.761 66.5142 6.615C66.9622 7.455 67.1862 8.421 67.1862 9.513C67.1862 10.605 66.9622 11.578 66.5142 12.432C66.0662 13.272 65.4362 13.923 64.6242 14.385C63.8122 14.847 62.8742 15.078 61.8102 15.078ZM61.8102 13.335C62.3842 13.335 62.9302 13.202 63.4482 12.936C63.9802 12.67 64.4142 12.25 64.7502 11.676C65.1002 11.102 65.2752 10.374 65.2752 9.492C65.2752 8.624 65.1002 7.903 64.7502 7.329C64.4142 6.755 63.9802 6.342 63.4482 6.09C62.9302 5.824 62.3842 5.691 61.8102 5.691C61.2222 5.691 60.6622 5.824 60.1302 6.09C59.6122 6.342 59.1852 6.755 58.8492 7.329C58.5132 7.903 58.3452 8.624 58.3452 9.492C58.3452 10.374 58.5132 11.102 58.8492 11.676C59.1852 12.25 59.6122 12.67 60.1302 12.936C60.6622 13.202 61.2222 13.335 61.8102 13.335ZM70.8066 14.973C70.5406 14.973 70.3166 14.882 70.1346 14.7C69.9526 14.518 69.8616 14.294 69.8616 14.028V5.019C69.8616 4.753 69.9526 4.529 70.1346 4.347C70.3166 4.151 70.5406 4.053 70.8066 4.053C71.0726 4.053 71.2966 4.151 71.4786 4.347C71.6746 4.529 71.7726 4.753 71.7726 5.019V5.922C72.7526 4.606 73.8516 3.948 75.0696 3.948H75.1746C75.4406 3.948 75.6576 4.039 75.8256 4.221C76.0076 4.403 76.0986 4.627 76.0986 4.893C76.0986 5.159 76.0076 5.376 75.8256 5.544C75.6436 5.712 75.4126 5.796 75.1326 5.796H75.0276C74.3556 5.796 73.7396 5.964 73.1796 6.3C72.6196 6.622 72.1506 7.07 71.7726 7.644V14.028C71.7726 14.294 71.6746 14.518 71.4786 14.7C71.2966 14.882 71.0726 14.973 70.8066 14.973ZM82.381 15.078C80.673 15.078 79.336 14.595 78.37 13.629C77.418 12.649 76.942 11.277 76.942 9.513C76.942 8.519 77.124 7.602 77.488 6.762C77.852 5.922 78.412 5.243 79.168 4.725C79.924 4.207 80.855 3.948 81.961 3.948C82.997 3.948 83.893 4.193 84.649 4.683C85.405 5.159 85.979 5.803 86.371 6.615C86.763 7.413 86.959 8.288 86.959 9.24C86.959 9.506 86.868 9.73 86.686 9.912C86.518 10.094 86.287 10.185 85.993 10.185H78.874C78.986 11.165 79.35 11.928 79.966 12.474C80.582 13.02 81.443 13.293 82.549 13.293C83.137 13.293 83.648 13.237 84.082 13.125C84.53 13.013 84.964 12.852 85.384 12.642C85.496 12.586 85.622 12.558 85.762 12.558C85.986 12.558 86.182 12.635 86.35 12.789C86.518 12.943 86.602 13.139 86.602 13.377C86.602 13.685 86.42 13.944 86.056 14.154C85.51 14.462 84.971 14.693 84.439 14.847C83.907 15.001 83.221 15.078 82.381 15.078ZM85.069 8.631C85.027 7.945 84.845 7.371 84.523 6.909C84.215 6.447 83.83 6.111 83.368 5.901C82.906 5.677 82.437 5.565 81.961 5.565C81.485 5.565 81.016 5.677 80.554 5.901C80.092 6.111 79.707 6.447 79.399 6.909C79.091 7.371 78.916 7.945 78.874 8.631H85.069Z" fill="#333333"/>
</svg>
